<svg width="38" height="38" fill="none" xmlns="http://www.w3.org/2000/svg"><path d="M37.565 35.465l-10.721-10.72c4.884-5.944 4.552-14.766-.998-20.317-5.905-5.904-15.513-5.904-21.418 0-5.904 5.905-5.904 15.513 0 21.418 5.55 5.549 14.37 5.885 20.316.998l10.721 10.72a1.485 1.485 0 102.1-2.099zm-13.819-11.72c-4.747 4.748-12.471 4.748-17.218 0-4.747-4.746-4.747-12.47 0-17.217 4.747-4.747 12.47-4.747 17.218 0 4.747 4.747 4.747 12.47 0 17.218z" fill="#fff"/><path d="M22.406 13.653h-5.784V7.868a1.485 1.485 0 10-2.97 0v5.785H7.869a1.485 1.485 0 100 2.969h5.784v5.785a1.485 1.485 0 102.97 0v-5.785h5.784a1.485 1.485 0 100-2.97z" fill="#fff"/></svg>